<svg id="visual" viewBox="0 0 540 960" width="540" height="960" xmlns="http://www.w3.org/2000/svg" xmlns:xlink="http://www.w3.org/1999/xlink" version="1.1"><rect x="0" y="0" width="540" height="960" fill="#1c5a87"></rect><defs><linearGradient id="grad1_0" x1="0%" y1="100%" x2="100%" y2="0%"><stop offset="30%" stop-color="#1c5a87" stop-opacity="1"></stop><stop offset="70%" stop-color="#1c5a87" stop-opacity="1"></stop></linearGradient></defs><defs><linearGradient id="grad2_0" x1="0%" y1="100%" x2="100%" y2="0%"><stop offset="30%" stop-color="#1c5a87" stop-opacity="1"></stop><stop offset="70%" stop-color="#1c5a87" stop-opacity="1"></stop></linearGradient></defs><g transform="translate(540, 960)"><path d="M-297 0C-258.5 -24 -220 -48 -211.6 -87.6C-203.2 -127.2 -224.9 -182.4 -210 -210C-195.1 -237.6 -143.7 -237.7 -102.6 -247.6C-61.5 -257.5 -30.7 -277.3 0 -297L0 0Z" fill="#ffffff"></path></g><g transform="translate(0, 0)"><path d="M297 0C282.6 32.7 268.1 65.3 257.8 106.8C247.4 148.2 241.1 198.5 210 210C178.9 221.5 122.9 194.3 83.8 202.3C44.7 210.4 22.3 253.7 0 297L0 0Z" fill="#ffffff"></path></g></svg>