<svg id="visual" viewBox="0 0 900 600" width="900" height="600" xmlns="http://www.w3.org/2000/svg" xmlns:xlink="http://www.w3.org/1999/xlink" version="1.1"><rect x="0" y="0" width="900" height="600" fill="#f1f0ee"></rect><path d="M0 145L21.5 171.2C43 197.3 86 249.7 128.8 260.3C171.7 271 214.3 240 257.2 237.8C300 235.7 343 262.3 385.8 261.8C428.7 261.3 471.3 233.7 514.2 211.5C557 189.3 600 172.7 642.8 170.3C685.7 168 728.3 180 771.2 194.2C814 208.3 857 224.7 878.5 232.8L900 241L900 0L878.5 0C857 0 814 0 771.2 0C728.3 0 685.7 0 642.8 0C600 0 557 0 514.2 0C471.3 0 428.7 0 385.8 0C343 0 300 0 257.2 0C214.3 0 171.7 0 128.8 0C86 0 43 0 21.5 0L0 0Z" fill="#2d2d2d" stroke-linecap="round" stroke-linejoin="miter"></path></svg>