<svg id="visual" viewBox="0 0 540 960" width="540" height="960" xmlns="http://www.w3.org/2000/svg" xmlns:xlink="http://www.w3.org/1999/xlink" version="1.1"><rect x="0" y="0" width="540" height="960" fill="#2d2d2d"></rect><path d="M0 630L12.8 643.5C25.7 657 51.3 684 77 692.5C102.7 701 128.3 691 154 678.5C179.7 666 205.3 651 231.2 632.5C257 614 283 592 308.8 599.8C334.7 607.7 360.3 645.3 386 662C411.7 678.7 437.3 674.3 463 662.5C488.7 650.7 514.3 631.3 527.2 621.7L540 612L540 961L527.2 961C514.3 961 488.7 961 463 961C437.3 961 411.7 961 386 961C360.3 961 334.7 961 308.8 961C283 961 257 961 231.2 961C205.3 961 179.7 961 154 961C128.3 961 102.7 961 77 961C51.3 961 25.7 961 12.8 961L0 961Z" fill="#2d2d2d"></path><path d="M0 657L12.8 662.2C25.7 667.3 51.3 677.7 77 682.7C102.7 687.7 128.3 687.3 154 681.8C179.7 676.3 205.3 665.7 231.2 667.5C257 669.3 283 683.7 308.8 687.7C334.7 691.7 360.3 685.3 386 676.3C411.7 667.3 437.3 655.7 463 666C488.7 676.3 514.3 708.7 527.2 724.8L540 741L540 961L527.2 961C514.3 961 488.7 961 463 961C437.3 961 411.7 961 386 961C360.3 961 334.7 961 308.8 961C283 961 257 961 231.2 961C205.3 961 179.7 961 154 961C128.3 961 102.7 961 77 961C51.3 961 25.7 961 12.8 961L0 961Z" fill="#585858"></path><path d="M0 756L12.8 754C25.7 752 51.3 748 77 754C102.7 760 128.3 776 154 778.5C179.7 781 205.3 770 231.2 756.8C257 743.7 283 728.3 308.8 727.7C334.7 727 360.3 741 386 751.5C411.7 762 437.3 769 463 774.3C488.7 779.7 514.3 783.3 527.2 785.2L540 787L540 961L527.2 961C514.3 961 488.7 961 463 961C437.3 961 411.7 961 386 961C360.3 961 334.7 961 308.8 961C283 961 257 961 231.2 961C205.3 961 179.7 961 154 961C128.3 961 102.7 961 77 961C51.3 961 25.7 961 12.8 961L0 961Z" fill="#888887"></path><path d="M0 807L12.8 803.3C25.7 799.7 51.3 792.3 77 795.2C102.7 798 128.3 811 154 823C179.7 835 205.3 846 231.2 837.3C257 828.7 283 800.3 308.8 801.3C334.7 802.3 360.3 832.7 386 837.5C411.7 842.3 437.3 821.7 463 812.5C488.7 803.3 514.3 805.7 527.2 806.8L540 808L540 961L527.2 961C514.3 961 488.7 961 463 961C437.3 961 411.7 961 386 961C360.3 961 334.7 961 308.8 961C283 961 257 961 231.2 961C205.3 961 179.7 961 154 961C128.3 961 102.7 961 77 961C51.3 961 25.7 961 12.8 961L0 961Z" fill="#bbbbb9"></path><path d="M0 843L12.8 849.2C25.7 855.3 51.3 867.7 77 868.8C102.7 870 128.3 860 154 856.7C179.7 853.3 205.3 856.7 231.2 864.8C257 873 283 886 308.8 888.7C334.7 891.3 360.3 883.7 386 880.8C411.7 878 437.3 880 463 876.7C488.7 873.3 514.3 864.7 527.2 860.3L540 856L540 961L527.2 961C514.3 961 488.7 961 463 961C437.3 961 411.7 961 386 961C360.3 961 334.7 961 308.8 961C283 961 257 961 231.2 961C205.3 961 179.7 961 154 961C128.3 961 102.7 961 77 961C51.3 961 25.7 961 12.8 961L0 961Z" fill="#f1f0ee"></path></svg>