<svg id="visual" viewBox="0 0 900 600" width="900" height="600" xmlns="http://www.w3.org/2000/svg" xmlns:xlink="http://www.w3.org/1999/xlink" version="1.1"><rect x="0" y="0" width="900" height="600" fill="#f1f0ee"></rect><path d="M0 103L21.5 121.7C43 140.3 86 177.7 128.8 185.3C171.7 193 214.3 171 257.2 169.5C300 168 343 187 385.8 186.7C428.7 186.3 471.3 166.7 514.2 150.8C557 135 600 123 642.8 121.3C685.7 119.7 728.3 128.3 771.2 138.5C814 148.7 857 160.3 878.5 166.2L900 172L900 0L878.5 0C857 0 814 0 771.2 0C728.3 0 685.7 0 642.8 0C600 0 557 0 514.2 0C471.3 0 428.7 0 385.8 0C343 0 300 0 257.2 0C214.3 0 171.7 0 128.8 0C86 0 43 0 21.5 0L0 0Z" fill="#2d2d2d" stroke-linecap="round" stroke-linejoin="miter"></path></svg>