<svg id="visual" viewBox="0 0 450 900" width="450" height="900" xmlns="http://www.w3.org/2000/svg" xmlns:xlink="http://www.w3.org/1999/xlink" version="1.1"><rect x="0" y="0" width="450" height="900" fill="#f1f0ee"></rect><path d="M0 329L18.8 328.8C37.7 328.7 75.3 328.3 112.8 333C150.3 337.7 187.7 347.3 225.2 339C262.7 330.7 300.3 304.3 337.8 286.3C375.3 268.3 412.7 258.7 431.3 253.8L450 249L450 0L431.3 0C412.7 0 375.3 0 337.8 0C300.3 0 262.7 0 225.2 0C187.7 0 150.3 0 112.8 0C75.3 0 37.7 0 18.8 0L0 0Z" fill="#2d2d2d" stroke-linecap="round" stroke-linejoin="miter"></path></svg>