<svg id="visual" viewBox="0 0 540 960" width="540" height="960" xmlns="http://www.w3.org/2000/svg" xmlns:xlink="http://www.w3.org/1999/xlink" version="1.1"><rect x="0" y="0" width="540" height="960" fill="#1b5a87"></rect><defs><linearGradient id="grad1_0" x1="0%" y1="100%" x2="100%" y2="0%"><stop offset="30%" stop-color="#ffffff" stop-opacity="1"></stop><stop offset="70%" stop-color="#ffffff" stop-opacity="1"></stop></linearGradient></defs><defs><linearGradient id="grad1_1" x1="0%" y1="100%" x2="100%" y2="0%"><stop offset="30%" stop-color="#ffffff" stop-opacity="1"></stop><stop offset="70%" stop-color="#94a8c2" stop-opacity="1"></stop></linearGradient></defs><defs><linearGradient id="grad1_2" x1="0%" y1="100%" x2="100%" y2="0%"><stop offset="30%" stop-color="#1b5a87" stop-opacity="1"></stop><stop offset="70%" stop-color="#94a8c2" stop-opacity="1"></stop></linearGradient></defs><defs><linearGradient id="grad2_0" x1="0%" y1="100%" x2="100%" y2="0%"><stop offset="30%" stop-color="#ffffff" stop-opacity="1"></stop><stop offset="70%" stop-color="#ffffff" stop-opacity="1"></stop></linearGradient></defs><defs><linearGradient id="grad2_1" x1="0%" y1="100%" x2="100%" y2="0%"><stop offset="30%" stop-color="#94a8c2" stop-opacity="1"></stop><stop offset="70%" stop-color="#ffffff" stop-opacity="1"></stop></linearGradient></defs><defs><linearGradient id="grad2_2" x1="0%" y1="100%" x2="100%" y2="0%"><stop offset="30%" stop-color="#94a8c2" stop-opacity="1"></stop><stop offset="70%" stop-color="#1b5a87" stop-opacity="1"></stop></linearGradient></defs><g transform="translate(540, 960)"><path d="M-378 0C-342.4 -50.9 -306.8 -101.8 -279.7 -161.5C-252.7 -221.2 -234.2 -289.8 -189 -327.4C-143.8 -364.9 -71.9 -371.5 0 -378L0 0Z" fill="#5e80a4"></path><path d="M-252 0C-228.3 -33.9 -204.5 -67.8 -186.5 -107.7C-168.5 -147.5 -156.1 -193.2 -126 -218.2C-95.9 -243.3 -47.9 -247.6 0 -252L0 0Z" fill="#c9d3e0"></path><path d="M-126 0C-114.1 -17 -102.3 -33.9 -93.2 -53.8C-84.2 -73.7 -78.1 -96.6 -63 -109.1C-47.9 -121.6 -24 -123.8 0 -126L0 0Z" fill="#ffffff"></path></g><g transform="translate(0, 0)"><path d="M378 0C369.9 69.1 361.7 138.3 327.4 189C293 239.7 232.4 272.1 173.5 300.5C114.6 328.9 57.3 353.5 0 378L0 0Z" fill="#5e80a4"></path><path d="M252 0C246.6 46.1 241.1 92.2 218.2 126C195.3 159.8 155 181.4 115.7 200.3C76.4 219.3 38.2 235.6 0 252L0 0Z" fill="#c9d3e0"></path><path d="M126 0C123.3 23 120.6 46.1 109.1 63C97.7 79.9 77.5 90.7 57.8 100.2C38.2 109.6 19.1 117.8 0 126L0 0Z" fill="#ffffff"></path></g></svg>