<svg id="visual" viewBox="0 0 540 960" width="540" height="960" xmlns="http://www.w3.org/2000/svg" xmlns:xlink="http://www.w3.org/1999/xlink" version="1.1"><rect x="0" y="0" width="540" height="960" fill="#ffffff"></rect><defs><linearGradient id="grad1_0" x1="0%" y1="0%" x2="100%" y2="100%"><stop offset="30%" stop-color="#ffffff" stop-opacity="1"></stop><stop offset="70%" stop-color="#ffffff" stop-opacity="1"></stop></linearGradient></defs><defs><linearGradient id="grad2_0" x1="0%" y1="0%" x2="100%" y2="100%"><stop offset="30%" stop-color="#ffffff" stop-opacity="1"></stop><stop offset="70%" stop-color="#ffffff" stop-opacity="1"></stop></linearGradient></defs><g transform="translate(540, 0)"><path d="M0 486C-51.5 451.1 -103 416.2 -164.9 398.2C-226.9 380.2 -299.4 379.1 -343.7 343.7C-388 308.2 -404.1 238.3 -423.1 175.3C-442.2 112.3 -464.1 56.1 -486 0L0 0Z" fill="#1c5a87"></path></g><g transform="translate(0, 960)"><path d="M0 -486C50.7 -438.1 101.3 -390.3 149.6 -361.2C197.9 -332.2 243.8 -322 298.4 -298.4C353 -274.8 416.3 -237.9 449 -186C481.7 -134 483.9 -67 486 0L0 0Z" fill="#1c5a87"></path></g></svg>