<svg id="visual" viewBox="0 0 540 960" width="540" height="960" xmlns="http://www.w3.org/2000/svg" xmlns:xlink="http://www.w3.org/1999/xlink" version="1.1"><rect x="0" y="0" width="540" height="960" fill="#F1F0EE"></rect><path d="M0 238L12.8 249.5C25.7 261 51.3 284 77 294C102.7 304 128.3 301 154 286.2C179.7 271.3 205.3 244.7 231.2 249.5C257 254.3 283 290.7 308.8 339.7C334.7 388.7 360.3 450.3 386 473.3C411.7 496.3 437.3 480.7 463 436.3C488.7 392 514.3 319 527.2 282.5L540 246L540 0L527.2 0C514.3 0 488.7 0 463 0C437.3 0 411.7 0 386 0C360.3 0 334.7 0 308.8 0C283 0 257 0 231.2 0C205.3 0 179.7 0 154 0C128.3 0 102.7 0 77 0C51.3 0 25.7 0 12.8 0L0 0Z" fill="#1C5A87" stroke-linecap="round" stroke-linejoin="miter"></path></svg>