<svg id="visual" viewBox="0 0 540 960" width="540" height="960" xmlns="http://www.w3.org/2000/svg" xmlns:xlink="http://www.w3.org/1999/xlink" version="1.1"><rect x="0" y="0" width="540" height="960" fill="#F1F0EE"></rect><path d="M0 228L12.8 258.3C25.7 288.7 51.3 349.3 77 360.5C102.7 371.7 128.3 333.3 154 325.7C179.7 318 205.3 341 231.2 334.5C257 328 283 292 308.8 285.3C334.7 278.7 360.3 301.3 386 292C411.7 282.7 437.3 241.3 463 216.5C488.7 191.7 514.3 183.3 527.2 179.2L540 175L540 0L527.2 0C514.3 0 488.7 0 463 0C437.3 0 411.7 0 386 0C360.3 0 334.7 0 308.8 0C283 0 257 0 231.2 0C205.3 0 179.7 0 154 0C128.3 0 102.7 0 77 0C51.3 0 25.7 0 12.8 0L0 0Z" fill="#1C5A87" stroke-linecap="round" stroke-linejoin="miter"></path></svg>