<svg id="visual" viewBox="0 0 540 960" width="540" height="960" xmlns="http://www.w3.org/2000/svg" xmlns:xlink="http://www.w3.org/1999/xlink" version="1.1"><rect x="0" y="0" width="540" height="960" fill="#2d2d2d"></rect><defs><linearGradient id="grad1_0" x1="0%" y1="0%" x2="100%" y2="100%"><stop offset="30%" stop-color="#2d2d2d" stop-opacity="1"></stop><stop offset="70%" stop-color="#2d2d2d" stop-opacity="1"></stop></linearGradient></defs><defs><linearGradient id="grad2_0" x1="0%" y1="0%" x2="100%" y2="100%"><stop offset="30%" stop-color="#2d2d2d" stop-opacity="1"></stop><stop offset="70%" stop-color="#2d2d2d" stop-opacity="1"></stop></linearGradient></defs><g transform="translate(540, 0)"><path d="M0 136C-14 137.2 -27.9 138.4 -45.1 138.9C-62.3 139.3 -82.8 138.9 -92.3 127C-101.7 115.1 -100.2 91.6 -105.2 76.4C-110.1 61.2 -121.6 54.3 -132.2 43C-142.8 31.6 -152.4 15.8 -162 0L0 0Z" fill="#f1f0ee"></path></g><g transform="translate(0, 960)"><path d="M0 -129C13.7 -132 27.4 -135.1 44.2 -136C61 -136.9 80.9 -135.8 91.1 -125.4C101.4 -115 102 -95.4 113.3 -82.3C124.5 -69.2 146.5 -62.7 154.1 -50.1C161.6 -37.4 154.8 -18.7 148 0L0 0Z" fill="#f1f0ee"></path></g></svg>